<mxfile host="app.diagrams.net" modified="2020-06-10T01:37:27.350Z" agent="5.0 (X11)" etag="7lAv1hzJpe9PKVRFP33T" version="13.2.1" type="github">
  <diagram id="GGBNnPE-5dZ_erYJaQ-l" name="Page-1">
    <mxGraphModel dx="2031" dy="1134" grid="1" gridSize="10" guides="1" tooltips="1" connect="1" arrows="1" fold="1" page="1" pageScale="1" pageWidth="1100" pageHeight="850" math="0" shadow="0">
      <root>
        <mxCell id="0" />
        <mxCell id="1" parent="0" />
        <mxCell id="fN3U7Vte8udqsAbF8adY-158" value="" style="group" vertex="1" connectable="0" parent="1">
          <mxGeometry x="60" y="100" width="945.25" height="530" as="geometry" />
        </mxCell>
        <mxCell id="fN3U7Vte8udqsAbF8adY-144" value="" style="group" vertex="1" connectable="0" parent="fN3U7Vte8udqsAbF8adY-158">
          <mxGeometry width="520" height="530" as="geometry" />
        </mxCell>
        <mxCell id="fN3U7Vte8udqsAbF8adY-119" value="" style="rounded=0;whiteSpace=wrap;html=1;fillColor=#f5f5f5;strokeColor=#666666;fontColor=#333333;" vertex="1" parent="fN3U7Vte8udqsAbF8adY-144">
          <mxGeometry x="270" width="250" height="20" as="geometry" />
        </mxCell>
        <mxCell id="fN3U7Vte8udqsAbF8adY-117" value="" style="rounded=0;whiteSpace=wrap;html=1;fillColor=#f5f5f5;strokeColor=#666666;fontColor=#333333;" vertex="1" parent="fN3U7Vte8udqsAbF8adY-144">
          <mxGeometry y="20" width="520" height="510" as="geometry" />
        </mxCell>
        <mxCell id="fN3U7Vte8udqsAbF8adY-5" value="" style="group" vertex="1" connectable="0" parent="fN3U7Vte8udqsAbF8adY-144">
          <mxGeometry x="50" y="40" width="161.10000000000002" height="50" as="geometry" />
        </mxCell>
        <mxCell id="fN3U7Vte8udqsAbF8adY-2" value="&lt;font style=&quot;font-size: 14px&quot;&gt;&lt;b&gt;Initialization&lt;/b&gt;&lt;/font&gt;" style="rounded=1;whiteSpace=wrap;html=1;fillColor=#ffcccc;strokeColor=#36393d;" vertex="1" parent="fN3U7Vte8udqsAbF8adY-5">
          <mxGeometry width="140" height="40" as="geometry" />
        </mxCell>
        <mxCell id="fN3U7Vte8udqsAbF8adY-1" value="" style="aspect=fixed;perimeter=ellipsePerimeter;html=1;align=center;shadow=0;dashed=0;fontColor=#4277BB;labelBackgroundColor=#ffffff;fontSize=12;spacingTop=3;image;image=img/lib/ibm/applications/microservice.svg;imageBackground=none;" vertex="1" parent="fN3U7Vte8udqsAbF8adY-5">
          <mxGeometry x="120" y="20" width="41.1" height="30" as="geometry" />
        </mxCell>
        <mxCell id="fN3U7Vte8udqsAbF8adY-6" value="" style="group" vertex="1" connectable="0" parent="fN3U7Vte8udqsAbF8adY-144">
          <mxGeometry x="110" y="100" width="161.10000000000002" height="50" as="geometry" />
        </mxCell>
        <mxCell id="fN3U7Vte8udqsAbF8adY-7" value="&lt;font style=&quot;font-size: 14px&quot;&gt;&lt;b&gt;Data Loading&lt;/b&gt;&lt;/font&gt;" style="rounded=1;whiteSpace=wrap;html=1;fillColor=#ffcccc;strokeColor=#36393d;" vertex="1" parent="fN3U7Vte8udqsAbF8adY-6">
          <mxGeometry width="140" height="40" as="geometry" />
        </mxCell>
        <mxCell id="fN3U7Vte8udqsAbF8adY-8" value="" style="aspect=fixed;perimeter=ellipsePerimeter;html=1;align=center;shadow=0;dashed=0;fontColor=#4277BB;labelBackgroundColor=#ffffff;fontSize=12;spacingTop=3;image;image=img/lib/ibm/applications/microservice.svg;" vertex="1" parent="fN3U7Vte8udqsAbF8adY-6">
          <mxGeometry x="120" y="20" width="41.1" height="30" as="geometry" />
        </mxCell>
        <mxCell id="fN3U7Vte8udqsAbF8adY-13" value="" style="group" vertex="1" connectable="0" parent="fN3U7Vte8udqsAbF8adY-144">
          <mxGeometry x="50" y="160" width="161.10000000000002" height="50" as="geometry" />
        </mxCell>
        <mxCell id="fN3U7Vte8udqsAbF8adY-14" value="&lt;font style=&quot;font-size: 14px&quot;&gt;&lt;b&gt;Preprocessing&lt;/b&gt;&lt;/font&gt;" style="rounded=1;whiteSpace=wrap;html=1;fillColor=#ffcccc;strokeColor=#36393d;" vertex="1" parent="fN3U7Vte8udqsAbF8adY-13">
          <mxGeometry width="140" height="40" as="geometry" />
        </mxCell>
        <mxCell id="fN3U7Vte8udqsAbF8adY-15" value="" style="aspect=fixed;perimeter=ellipsePerimeter;html=1;align=center;shadow=0;dashed=0;fontColor=#4277BB;labelBackgroundColor=#ffffff;fontSize=12;spacingTop=3;image;image=img/lib/ibm/applications/microservice.svg;" vertex="1" parent="fN3U7Vte8udqsAbF8adY-13">
          <mxGeometry x="120" y="20" width="41.1" height="30" as="geometry" />
        </mxCell>
        <mxCell id="fN3U7Vte8udqsAbF8adY-19" value="" style="group;container=1;" vertex="1" connectable="0" parent="fN3U7Vte8udqsAbF8adY-144">
          <mxGeometry x="150" y="310" width="101.10000000000002" height="50" as="geometry" />
        </mxCell>
        <mxCell id="fN3U7Vte8udqsAbF8adY-49" value="" style="group" vertex="1" connectable="0" parent="fN3U7Vte8udqsAbF8adY-19">
          <mxGeometry x="-11.100000000000001" width="101.1" height="50" as="geometry" />
        </mxCell>
        <mxCell id="fN3U7Vte8udqsAbF8adY-17" value="&lt;font style=&quot;font-size: 14px&quot;&gt;&lt;b&gt;GRU&lt;/b&gt;&lt;/font&gt;" style="rounded=1;whiteSpace=wrap;html=1;fillColor=#d0cee2;strokeColor=#56517e;" vertex="1" parent="fN3U7Vte8udqsAbF8adY-49">
          <mxGeometry y="-10" width="80" height="40" as="geometry" />
        </mxCell>
        <mxCell id="fN3U7Vte8udqsAbF8adY-18" value="" style="aspect=fixed;perimeter=ellipsePerimeter;html=1;align=center;shadow=0;dashed=0;fontColor=#4277BB;labelBackgroundColor=#ffffff;fontSize=12;spacingTop=3;image;image=img/lib/ibm/applications/microservice.svg;" vertex="1" parent="fN3U7Vte8udqsAbF8adY-49">
          <mxGeometry x="60" y="10" width="41.1" height="30" as="geometry" />
        </mxCell>
        <mxCell id="fN3U7Vte8udqsAbF8adY-27" value="" style="group" vertex="1" connectable="0" parent="fN3U7Vte8udqsAbF8adY-144">
          <mxGeometry x="30" y="300" width="101.1" height="50" as="geometry" />
        </mxCell>
        <mxCell id="fN3U7Vte8udqsAbF8adY-24" value="&lt;font style=&quot;font-size: 14px&quot;&gt;&lt;b&gt;MLP&lt;/b&gt;&lt;/font&gt;" style="rounded=1;whiteSpace=wrap;html=1;fillColor=#d0cee2;strokeColor=#56517e;" vertex="1" parent="fN3U7Vte8udqsAbF8adY-27">
          <mxGeometry width="80" height="40" as="geometry" />
        </mxCell>
        <mxCell id="fN3U7Vte8udqsAbF8adY-25" value="" style="aspect=fixed;perimeter=ellipsePerimeter;html=1;align=center;shadow=0;dashed=0;fontColor=#4277BB;labelBackgroundColor=#ffffff;fontSize=12;spacingTop=3;image;image=img/lib/ibm/applications/microservice.svg;" vertex="1" parent="fN3U7Vte8udqsAbF8adY-27">
          <mxGeometry x="60" y="20" width="41.1" height="30" as="geometry" />
        </mxCell>
        <mxCell id="fN3U7Vte8udqsAbF8adY-28" value="" style="group" vertex="1" connectable="0" parent="fN3U7Vte8udqsAbF8adY-144">
          <mxGeometry x="250" y="310" width="101.1" height="50" as="geometry" />
        </mxCell>
        <mxCell id="fN3U7Vte8udqsAbF8adY-21" value="&lt;font style=&quot;font-size: 14px&quot;&gt;&lt;b&gt;LSTM&lt;/b&gt;&lt;/font&gt;" style="rounded=1;whiteSpace=wrap;html=1;fillColor=#d0cee2;strokeColor=#56517e;" vertex="1" parent="fN3U7Vte8udqsAbF8adY-28">
          <mxGeometry y="-10" width="80" height="40" as="geometry" />
        </mxCell>
        <mxCell id="fN3U7Vte8udqsAbF8adY-22" value="" style="aspect=fixed;perimeter=ellipsePerimeter;html=1;align=center;shadow=0;dashed=0;fontColor=#4277BB;labelBackgroundColor=#ffffff;fontSize=12;spacingTop=3;image;image=img/lib/ibm/applications/microservice.svg;" vertex="1" parent="fN3U7Vte8udqsAbF8adY-28">
          <mxGeometry x="60" y="10" width="41.1" height="30" as="geometry" />
        </mxCell>
        <mxCell id="fN3U7Vte8udqsAbF8adY-29" value="" style="group" vertex="1" connectable="0" parent="fN3U7Vte8udqsAbF8adY-144">
          <mxGeometry x="110" y="220" width="161.10000000000002" height="50" as="geometry" />
        </mxCell>
        <mxCell id="fN3U7Vte8udqsAbF8adY-30" value="&lt;div&gt;&lt;font style=&quot;font-size: 14px&quot;&gt;&lt;b&gt;Feature&lt;/b&gt;&lt;/font&gt;&lt;/div&gt;&lt;div&gt;&lt;font style=&quot;font-size: 14px&quot;&gt;&lt;b&gt;Engineering&lt;/b&gt;&lt;/font&gt;&lt;/div&gt;" style="rounded=1;whiteSpace=wrap;html=1;fillColor=#ffcccc;strokeColor=#36393d;" vertex="1" parent="fN3U7Vte8udqsAbF8adY-29">
          <mxGeometry width="140" height="40" as="geometry" />
        </mxCell>
        <mxCell id="fN3U7Vte8udqsAbF8adY-31" value="" style="aspect=fixed;perimeter=ellipsePerimeter;html=1;align=center;shadow=0;dashed=0;fontColor=#4277BB;labelBackgroundColor=#ffffff;fontSize=12;spacingTop=3;image;image=img/lib/ibm/applications/microservice.svg;" vertex="1" parent="fN3U7Vte8udqsAbF8adY-29">
          <mxGeometry x="120" y="20" width="41.1" height="30" as="geometry" />
        </mxCell>
        <mxCell id="fN3U7Vte8udqsAbF8adY-32" value="" style="group" vertex="1" connectable="0" parent="fN3U7Vte8udqsAbF8adY-144">
          <mxGeometry x="110" y="400" width="161.10000000000002" height="50" as="geometry" />
        </mxCell>
        <mxCell id="fN3U7Vte8udqsAbF8adY-33" value="&lt;font style=&quot;font-size: 14px&quot;&gt;&lt;b&gt;Model Selection&lt;/b&gt;&lt;/font&gt;" style="rounded=1;whiteSpace=wrap;html=1;" vertex="1" parent="fN3U7Vte8udqsAbF8adY-32">
          <mxGeometry y="-10" width="140" height="40" as="geometry" />
        </mxCell>
        <mxCell id="fN3U7Vte8udqsAbF8adY-34" value="" style="aspect=fixed;perimeter=ellipsePerimeter;html=1;align=center;shadow=0;dashed=0;fontColor=#4277BB;labelBackgroundColor=#ffffff;fontSize=12;spacingTop=3;image;image=img/lib/ibm/applications/microservice.svg;" vertex="1" parent="fN3U7Vte8udqsAbF8adY-32">
          <mxGeometry x="120" y="10" width="41.1" height="30" as="geometry" />
        </mxCell>
        <mxCell id="fN3U7Vte8udqsAbF8adY-35" value="" style="group" vertex="1" connectable="0" parent="fN3U7Vte8udqsAbF8adY-144">
          <mxGeometry x="50" y="440" width="161.10000000000002" height="50" as="geometry" />
        </mxCell>
        <mxCell id="fN3U7Vte8udqsAbF8adY-36" value="&lt;font style=&quot;font-size: 14px&quot;&gt;&lt;b&gt;Validation&lt;/b&gt;&lt;/font&gt;" style="rounded=1;whiteSpace=wrap;html=1;" vertex="1" parent="fN3U7Vte8udqsAbF8adY-35">
          <mxGeometry x="30" y="10" width="110" height="40" as="geometry" />
        </mxCell>
        <mxCell id="fN3U7Vte8udqsAbF8adY-37" value="" style="aspect=fixed;perimeter=ellipsePerimeter;html=1;align=center;shadow=0;dashed=0;fontColor=#4277BB;labelBackgroundColor=#ffffff;fontSize=12;spacingTop=3;image;image=img/lib/ibm/applications/microservice.svg;" vertex="1" parent="fN3U7Vte8udqsAbF8adY-35">
          <mxGeometry x="120" y="30" width="41.1" height="30" as="geometry" />
        </mxCell>
        <mxCell id="fN3U7Vte8udqsAbF8adY-45" style="edgeStyle=elbowEdgeStyle;rounded=0;orthogonalLoop=1;jettySize=auto;html=1;exitX=0.75;exitY=1;exitDx=0;exitDy=0;entryX=1;entryY=0.25;entryDx=0;entryDy=0;" edge="1" parent="fN3U7Vte8udqsAbF8adY-144" source="fN3U7Vte8udqsAbF8adY-7" target="fN3U7Vte8udqsAbF8adY-14">
          <mxGeometry relative="1" as="geometry">
            <Array as="points">
              <mxPoint x="215" y="160" />
            </Array>
          </mxGeometry>
        </mxCell>
        <mxCell id="fN3U7Vte8udqsAbF8adY-46" style="edgeStyle=elbowEdgeStyle;rounded=0;orthogonalLoop=1;jettySize=auto;html=1;exitX=0.25;exitY=1;exitDx=0;exitDy=0;entryX=0;entryY=0.5;entryDx=0;entryDy=0;" edge="1" parent="fN3U7Vte8udqsAbF8adY-144" source="fN3U7Vte8udqsAbF8adY-14" target="fN3U7Vte8udqsAbF8adY-30">
          <mxGeometry relative="1" as="geometry">
            <Array as="points">
              <mxPoint x="85" y="230" />
            </Array>
          </mxGeometry>
        </mxCell>
        <mxCell id="fN3U7Vte8udqsAbF8adY-50" style="edgeStyle=elbowEdgeStyle;rounded=0;orthogonalLoop=1;jettySize=auto;html=1;exitX=0.5;exitY=1;exitDx=0;exitDy=0;entryX=0.5;entryY=0;entryDx=0;entryDy=0;" edge="1" parent="fN3U7Vte8udqsAbF8adY-144" source="fN3U7Vte8udqsAbF8adY-30" target="fN3U7Vte8udqsAbF8adY-17">
          <mxGeometry relative="1" as="geometry" />
        </mxCell>
        <mxCell id="fN3U7Vte8udqsAbF8adY-51" style="edgeStyle=elbowEdgeStyle;rounded=0;orthogonalLoop=1;jettySize=auto;html=1;exitX=0.75;exitY=1;exitDx=0;exitDy=0;entryX=0.5;entryY=0;entryDx=0;entryDy=0;" edge="1" parent="fN3U7Vte8udqsAbF8adY-144" source="fN3U7Vte8udqsAbF8adY-30" target="fN3U7Vte8udqsAbF8adY-21">
          <mxGeometry relative="1" as="geometry" />
        </mxCell>
        <mxCell id="fN3U7Vte8udqsAbF8adY-52" style="edgeStyle=elbowEdgeStyle;rounded=0;orthogonalLoop=1;jettySize=auto;html=1;exitX=0.25;exitY=1;exitDx=0;exitDy=0;" edge="1" parent="fN3U7Vte8udqsAbF8adY-144" source="fN3U7Vte8udqsAbF8adY-30" target="fN3U7Vte8udqsAbF8adY-24">
          <mxGeometry relative="1" as="geometry" />
        </mxCell>
        <mxCell id="fN3U7Vte8udqsAbF8adY-53" style="edgeStyle=elbowEdgeStyle;rounded=0;orthogonalLoop=1;jettySize=auto;html=1;exitX=0.5;exitY=1;exitDx=0;exitDy=0;entryX=0.5;entryY=0;entryDx=0;entryDy=0;" edge="1" parent="fN3U7Vte8udqsAbF8adY-144" source="fN3U7Vte8udqsAbF8adY-17" target="fN3U7Vte8udqsAbF8adY-33">
          <mxGeometry relative="1" as="geometry">
            <Array as="points">
              <mxPoint x="180" y="380" />
              <mxPoint x="180" y="400" />
            </Array>
          </mxGeometry>
        </mxCell>
        <mxCell id="fN3U7Vte8udqsAbF8adY-54" style="edgeStyle=elbowEdgeStyle;rounded=0;orthogonalLoop=1;jettySize=auto;html=1;entryX=0.75;entryY=0;entryDx=0;entryDy=0;" edge="1" parent="fN3U7Vte8udqsAbF8adY-144" source="fN3U7Vte8udqsAbF8adY-21" target="fN3U7Vte8udqsAbF8adY-33">
          <mxGeometry relative="1" as="geometry" />
        </mxCell>
        <mxCell id="fN3U7Vte8udqsAbF8adY-55" style="edgeStyle=elbowEdgeStyle;rounded=0;orthogonalLoop=1;jettySize=auto;html=1;entryX=0.25;entryY=0;entryDx=0;entryDy=0;" edge="1" parent="fN3U7Vte8udqsAbF8adY-144" source="fN3U7Vte8udqsAbF8adY-24" target="fN3U7Vte8udqsAbF8adY-33">
          <mxGeometry relative="1" as="geometry" />
        </mxCell>
        <mxCell id="fN3U7Vte8udqsAbF8adY-56" style="edgeStyle=elbowEdgeStyle;rounded=0;orthogonalLoop=1;jettySize=auto;html=1;exitX=0.75;exitY=1;exitDx=0;exitDy=0;entryX=1;entryY=0.25;entryDx=0;entryDy=0;" edge="1" parent="fN3U7Vte8udqsAbF8adY-144" source="fN3U7Vte8udqsAbF8adY-33" target="fN3U7Vte8udqsAbF8adY-36">
          <mxGeometry relative="1" as="geometry">
            <Array as="points">
              <mxPoint x="215" y="440" />
            </Array>
          </mxGeometry>
        </mxCell>
        <mxCell id="fN3U7Vte8udqsAbF8adY-57" value="" style="group" vertex="1" connectable="0" parent="fN3U7Vte8udqsAbF8adY-144">
          <mxGeometry x="280" y="420" width="161.10000000000002" height="50" as="geometry" />
        </mxCell>
        <mxCell id="fN3U7Vte8udqsAbF8adY-58" value="&lt;font style=&quot;font-size: 14px&quot;&gt;&lt;b&gt;Export Model&lt;/b&gt;&lt;/font&gt;" style="rounded=1;whiteSpace=wrap;html=1;" vertex="1" parent="fN3U7Vte8udqsAbF8adY-57">
          <mxGeometry y="10" width="140" height="40" as="geometry" />
        </mxCell>
        <mxCell id="fN3U7Vte8udqsAbF8adY-59" value="" style="aspect=fixed;perimeter=ellipsePerimeter;html=1;align=center;shadow=0;dashed=0;fontColor=#4277BB;labelBackgroundColor=#ffffff;fontSize=12;spacingTop=3;image;image=img/lib/ibm/applications/microservice.svg;" vertex="1" parent="fN3U7Vte8udqsAbF8adY-57">
          <mxGeometry x="120" y="30" width="41.1" height="30" as="geometry" />
        </mxCell>
        <mxCell id="fN3U7Vte8udqsAbF8adY-62" style="edgeStyle=elbowEdgeStyle;rounded=0;orthogonalLoop=1;jettySize=auto;html=1;exitX=0.75;exitY=1;exitDx=0;exitDy=0;entryX=0.5;entryY=1;entryDx=0;entryDy=0;" edge="1" parent="fN3U7Vte8udqsAbF8adY-144" source="fN3U7Vte8udqsAbF8adY-36" target="fN3U7Vte8udqsAbF8adY-58">
          <mxGeometry relative="1" as="geometry">
            <Array as="points">
              <mxPoint x="280" y="510" />
              <mxPoint x="220" y="500" />
              <mxPoint x="240" y="490" />
              <mxPoint x="240" y="500" />
              <mxPoint x="210" y="500" />
            </Array>
          </mxGeometry>
        </mxCell>
        <mxCell id="fN3U7Vte8udqsAbF8adY-70" style="edgeStyle=entityRelationEdgeStyle;rounded=0;orthogonalLoop=1;jettySize=auto;html=1;exitX=1;exitY=0.25;exitDx=0;exitDy=0;entryX=0;entryY=0.111;entryDx=0;entryDy=0;entryPerimeter=0;dashed=1;strokeColor=#808080;" edge="1" parent="fN3U7Vte8udqsAbF8adY-144">
          <mxGeometry relative="1" as="geometry">
            <mxPoint x="190" y="59" as="sourcePoint" />
            <mxPoint x="370" y="153.99" as="targetPoint" />
          </mxGeometry>
        </mxCell>
        <mxCell id="fN3U7Vte8udqsAbF8adY-71" style="edgeStyle=entityRelationEdgeStyle;rounded=0;orthogonalLoop=1;jettySize=auto;html=1;exitX=1;exitY=0.25;exitDx=0;exitDy=0;entryX=0;entryY=0.25;entryDx=0;entryDy=0;dashed=1;strokeColor=#808080;" edge="1" parent="fN3U7Vte8udqsAbF8adY-144">
          <mxGeometry relative="1" as="geometry">
            <mxPoint x="250" y="119" as="sourcePoint" />
            <mxPoint x="370" y="166.5" as="targetPoint" />
          </mxGeometry>
        </mxCell>
        <mxCell id="fN3U7Vte8udqsAbF8adY-72" style="edgeStyle=orthogonalEdgeStyle;rounded=0;orthogonalLoop=1;jettySize=auto;html=1;exitX=1;exitY=0.5;exitDx=0;exitDy=0;dashed=1;strokeColor=#808080;" edge="1" parent="fN3U7Vte8udqsAbF8adY-144" source="fN3U7Vte8udqsAbF8adY-14" target="fN3U7Vte8udqsAbF8adY-68">
          <mxGeometry relative="1" as="geometry">
            <Array as="points">
              <mxPoint x="330" y="180" />
              <mxPoint x="330" y="180" />
            </Array>
          </mxGeometry>
        </mxCell>
        <mxCell id="fN3U7Vte8udqsAbF8adY-73" style="edgeStyle=entityRelationEdgeStyle;rounded=0;orthogonalLoop=1;jettySize=auto;html=1;exitX=1;exitY=0.25;exitDx=0;exitDy=0;entryX=-0.006;entryY=0.679;entryDx=0;entryDy=0;entryPerimeter=0;dashed=1;strokeColor=#808080;" edge="1" parent="fN3U7Vte8udqsAbF8adY-144">
          <mxGeometry relative="1" as="geometry">
            <mxPoint x="251" y="226" as="sourcePoint" />
            <mxPoint x="370.28" y="192.11" as="targetPoint" />
          </mxGeometry>
        </mxCell>
        <mxCell id="fN3U7Vte8udqsAbF8adY-79" style="rounded=0;orthogonalLoop=1;jettySize=auto;html=1;exitX=1;exitY=0.25;exitDx=0;exitDy=0;entryX=0.25;entryY=1;entryDx=0;entryDy=0;dashed=1;strokeColor=#808080;" edge="1" parent="fN3U7Vte8udqsAbF8adY-144" source="fN3U7Vte8udqsAbF8adY-21" target="fN3U7Vte8udqsAbF8adY-68">
          <mxGeometry relative="1" as="geometry">
            <mxPoint x="390" y="230" as="targetPoint" />
          </mxGeometry>
        </mxCell>
        <mxCell id="fN3U7Vte8udqsAbF8adY-81" style="edgeStyle=none;rounded=0;orthogonalLoop=1;jettySize=auto;html=1;exitX=1;exitY=0.25;exitDx=0;exitDy=0;entryX=0;entryY=1;entryDx=0;entryDy=0;dashed=1;strokeColor=#808080;" edge="1" parent="fN3U7Vte8udqsAbF8adY-144" source="fN3U7Vte8udqsAbF8adY-17" target="fN3U7Vte8udqsAbF8adY-68">
          <mxGeometry relative="1" as="geometry" />
        </mxCell>
        <mxCell id="fN3U7Vte8udqsAbF8adY-83" style="edgeStyle=orthogonalEdgeStyle;rounded=0;orthogonalLoop=1;jettySize=auto;html=1;exitX=0.25;exitY=1;exitDx=0;exitDy=0;entryX=0;entryY=0.5;entryDx=0;entryDy=0;" edge="1" parent="fN3U7Vte8udqsAbF8adY-144" source="fN3U7Vte8udqsAbF8adY-2" target="fN3U7Vte8udqsAbF8adY-7">
          <mxGeometry relative="1" as="geometry" />
        </mxCell>
        <mxCell id="fN3U7Vte8udqsAbF8adY-84" style="edgeStyle=orthogonalEdgeStyle;rounded=0;orthogonalLoop=1;jettySize=auto;html=1;exitX=0;exitY=0.5;exitDx=0;exitDy=0;entryX=0.25;entryY=0;entryDx=0;entryDy=0;dashed=1;strokeColor=#808080;" edge="1" parent="fN3U7Vte8udqsAbF8adY-144" source="fN3U7Vte8udqsAbF8adY-24" target="fN3U7Vte8udqsAbF8adY-68">
          <mxGeometry relative="1" as="geometry">
            <Array as="points">
              <mxPoint x="10" y="320" />
              <mxPoint x="10" y="30" />
              <mxPoint x="400" y="30" />
            </Array>
          </mxGeometry>
        </mxCell>
        <mxCell id="fN3U7Vte8udqsAbF8adY-86" style="rounded=0;orthogonalLoop=1;jettySize=auto;html=1;exitX=0.75;exitY=0;exitDx=0;exitDy=0;entryX=0.5;entryY=1;entryDx=0;entryDy=0;dashed=1;strokeColor=#808080;" edge="1" parent="fN3U7Vte8udqsAbF8adY-144" source="fN3U7Vte8udqsAbF8adY-58" target="fN3U7Vte8udqsAbF8adY-68">
          <mxGeometry relative="1" as="geometry" />
        </mxCell>
        <mxCell id="fN3U7Vte8udqsAbF8adY-87" style="edgeStyle=orthogonalEdgeStyle;rounded=0;orthogonalLoop=1;jettySize=auto;html=1;entryX=0.75;entryY=1;entryDx=0;entryDy=0;exitX=0.5;exitY=1;exitDx=0;exitDy=0;dashed=1;strokeColor=#808080;" edge="1" parent="fN3U7Vte8udqsAbF8adY-144" source="fN3U7Vte8udqsAbF8adY-36" target="fN3U7Vte8udqsAbF8adY-68">
          <mxGeometry relative="1" as="geometry">
            <Array as="points">
              <mxPoint x="135" y="520" />
              <mxPoint x="460" y="520" />
            </Array>
          </mxGeometry>
        </mxCell>
        <mxCell id="fN3U7Vte8udqsAbF8adY-118" value="&lt;font style=&quot;font-size: 14px&quot;&gt;&lt;b&gt;APRIL Predictive Analytics Module&lt;br&gt;&lt;/b&gt;&lt;/font&gt;" style="text;html=1;align=center;verticalAlign=middle;resizable=0;points=[];autosize=1;" vertex="1" parent="fN3U7Vte8udqsAbF8adY-144">
          <mxGeometry x="270" width="250" height="20" as="geometry" />
        </mxCell>
        <mxCell id="fN3U7Vte8udqsAbF8adY-142" value="" style="group" vertex="1" connectable="0" parent="fN3U7Vte8udqsAbF8adY-144">
          <mxGeometry x="370" y="135" width="138.25" height="105" as="geometry" />
        </mxCell>
        <mxCell id="fN3U7Vte8udqsAbF8adY-68" value="" style="strokeColor=#dddddd;shadow=1;strokeWidth=1;rounded=1;absoluteArcSize=1;arcSize=2;" vertex="1" parent="fN3U7Vte8udqsAbF8adY-142">
          <mxGeometry width="120" height="90" as="geometry" />
        </mxCell>
        <mxCell id="fN3U7Vte8udqsAbF8adY-69" value="&lt;div style=&quot;font-size: 14px&quot;&gt;&lt;font style=&quot;font-size: 14px&quot;&gt;&lt;b&gt;Persistent &lt;br&gt;&lt;/b&gt;&lt;/font&gt;&lt;/div&gt;&lt;div style=&quot;font-size: 14px&quot;&gt;&lt;font style=&quot;font-size: 14px&quot;&gt;&lt;b&gt;Marshal&lt;/b&gt;&lt;/font&gt;&lt;/div&gt;&lt;div style=&quot;font-size: 14px&quot;&gt;&lt;font style=&quot;font-size: 14px&quot;&gt;&lt;b&gt;Volume&lt;br&gt;&lt;/b&gt;&lt;/font&gt;&lt;/div&gt;" style="dashed=0;connectable=0;html=1;fillColor=#757575;strokeColor=none;shape=mxgraph.gcp2.persistent_disk_snapshot;part=1;labelPosition=right;verticalLabelPosition=middle;align=left;verticalAlign=middle;spacingLeft=5;fontSize=12;" vertex="1" parent="fN3U7Vte8udqsAbF8adY-68">
          <mxGeometry y="0.5" width="32" height="32" relative="1" as="geometry">
            <mxPoint x="5" y="-16" as="offset" />
          </mxGeometry>
        </mxCell>
        <mxCell id="fN3U7Vte8udqsAbF8adY-3" value="" style="shape=mxgraph.gcp.storage_databases.persistent_disk;html=1;fillColor=#4387FD;gradientColor=#4683EA;strokeColor=none;verticalLabelPosition=bottom;verticalAlign=top;align=center;" vertex="1" parent="fN3U7Vte8udqsAbF8adY-142">
          <mxGeometry x="104" y="75" width="34.25" height="30" as="geometry" />
        </mxCell>
        <mxCell id="fN3U7Vte8udqsAbF8adY-90" style="edgeStyle=orthogonalEdgeStyle;rounded=0;orthogonalLoop=1;jettySize=auto;html=1;strokeWidth=2;" edge="1" parent="fN3U7Vte8udqsAbF8adY-158" source="fN3U7Vte8udqsAbF8adY-68" target="fN3U7Vte8udqsAbF8adY-89">
          <mxGeometry relative="1" as="geometry" />
        </mxCell>
        <mxCell id="fN3U7Vte8udqsAbF8adY-95" value="" style="strokeColor=#dddddd;shadow=1;strokeWidth=1;rounded=1;absoluteArcSize=1;arcSize=2;" vertex="1" parent="fN3U7Vte8udqsAbF8adY-158">
          <mxGeometry x="550" y="40" width="152" height="60" as="geometry" />
        </mxCell>
        <mxCell id="fN3U7Vte8udqsAbF8adY-96" value="&lt;div style=&quot;font-size: 14px&quot;&gt;&lt;font style=&quot;font-size: 14px&quot;&gt;&lt;b&gt;&lt;font style=&quot;font-size: 14px&quot; color=&quot;#33001A&quot;&gt;Deployment&lt;/font&gt;&lt;/b&gt;&lt;/font&gt;&lt;/div&gt;&lt;div style=&quot;font-size: 14px&quot;&gt;&lt;font style=&quot;font-size: 14px&quot;&gt;&lt;b&gt;&lt;font style=&quot;font-size: 14px&quot; color=&quot;#33001A&quot;&gt;Logging&lt;br&gt;&lt;/font&gt;&lt;/b&gt;&lt;/font&gt;&lt;/div&gt;" style="dashed=0;connectable=0;html=1;fillColor=#5184F3;strokeColor=none;shape=mxgraph.gcp2.hexIcon;prIcon=logging;part=1;labelPosition=right;verticalLabelPosition=middle;align=left;verticalAlign=middle;spacingLeft=5;fontColor=#999999;fontSize=12;" vertex="1" parent="fN3U7Vte8udqsAbF8adY-95">
          <mxGeometry y="0.5" width="44" height="39" relative="1" as="geometry">
            <mxPoint x="5" y="-19.5" as="offset" />
          </mxGeometry>
        </mxCell>
        <mxCell id="fN3U7Vte8udqsAbF8adY-99" value="" style="strokeColor=#dddddd;shadow=1;strokeWidth=1;rounded=1;absoluteArcSize=1;arcSize=2;" vertex="1" parent="fN3U7Vte8udqsAbF8adY-158">
          <mxGeometry x="730" y="150.5" width="159" height="59" as="geometry" />
        </mxCell>
        <mxCell id="fN3U7Vte8udqsAbF8adY-100" value="&lt;b&gt;&lt;font style=&quot;font-size: 14px&quot; color=&quot;#000000&quot;&gt;API Service&lt;/font&gt;&lt;/b&gt;&lt;font style=&quot;font-size: 14px&quot;&gt;&lt;br&gt;API Endpoints&lt;/font&gt;" style="dashed=0;connectable=0;html=1;fillColor=#5184F3;strokeColor=none;shape=mxgraph.gcp2.hexIcon;prIcon=cloud_endpoints;part=1;labelPosition=right;verticalLabelPosition=middle;align=left;verticalAlign=middle;spacingLeft=5;fontColor=#999999;fontSize=12;" vertex="1" parent="fN3U7Vte8udqsAbF8adY-99">
          <mxGeometry y="0.5" width="44" height="39" relative="1" as="geometry">
            <mxPoint x="5" y="-19.5" as="offset" />
          </mxGeometry>
        </mxCell>
        <mxCell id="fN3U7Vte8udqsAbF8adY-141" style="edgeStyle=orthogonalEdgeStyle;rounded=0;orthogonalLoop=1;jettySize=auto;html=1;entryX=1.004;entryY=0.842;entryDx=0;entryDy=0;entryPerimeter=0;strokeWidth=2;" edge="1" parent="fN3U7Vte8udqsAbF8adY-158" source="fN3U7Vte8udqsAbF8adY-114" target="fN3U7Vte8udqsAbF8adY-117">
          <mxGeometry relative="1" as="geometry">
            <mxPoint x="530" y="450" as="targetPoint" />
            <Array as="points">
              <mxPoint x="621" y="449" />
            </Array>
          </mxGeometry>
        </mxCell>
        <mxCell id="fN3U7Vte8udqsAbF8adY-114" value="" style="strokeColor=#dddddd;shadow=1;strokeWidth=1;rounded=1;absoluteArcSize=1;arcSize=2;" vertex="1" parent="fN3U7Vte8udqsAbF8adY-158">
          <mxGeometry x="730" y="420" width="159" height="60" as="geometry" />
        </mxCell>
        <mxCell id="fN3U7Vte8udqsAbF8adY-115" value="&lt;div&gt;&lt;b&gt;&lt;font color=&quot;#000000&quot;&gt;SNAG &lt;br&gt;&lt;/font&gt;&lt;/b&gt;&lt;/div&gt;&lt;div&gt;&lt;b&gt;&lt;font color=&quot;#000000&quot;&gt;Application&lt;br&gt;&lt;/font&gt;&lt;/b&gt;&lt;/div&gt;&lt;div&gt;&lt;font color=&quot;#000000&quot;&gt;&lt;b&gt;Awareness&lt;/b&gt;&lt;br&gt;&lt;/font&gt;&lt;/div&gt;" style="dashed=0;connectable=0;html=1;fillColor=#CC6600;strokeColor=none;shape=mxgraph.gcp2.hexIcon;prIcon=app_engine;part=1;labelPosition=right;verticalLabelPosition=middle;align=left;verticalAlign=middle;spacingLeft=5;fontColor=#999999;fontSize=12;" vertex="1" parent="fN3U7Vte8udqsAbF8adY-114">
          <mxGeometry y="0.5" width="44" height="39" relative="1" as="geometry">
            <mxPoint x="5" y="-19.5" as="offset" />
          </mxGeometry>
        </mxCell>
        <mxCell id="fN3U7Vte8udqsAbF8adY-123" value="" style="strokeColor=#dddddd;shadow=1;strokeWidth=1;rounded=1;absoluteArcSize=1;arcSize=2;fillColor=#ffffff;" vertex="1" parent="fN3U7Vte8udqsAbF8adY-158">
          <mxGeometry x="730" y="240" width="159" height="60" as="geometry" />
        </mxCell>
        <mxCell id="fN3U7Vte8udqsAbF8adY-124" value="&lt;div&gt;&lt;b&gt;&lt;font color=&quot;#000000&quot;&gt;APRIL&lt;/font&gt;&lt;/b&gt;&lt;/div&gt;&lt;div&gt;&lt;font color=&quot;#000000&quot;&gt;&lt;b&gt;LoadBalancer&lt;/b&gt;&lt;br&gt;&lt;/font&gt;&lt;/div&gt;" style="dashed=0;connectable=0;html=1;fillColor=#CC6600;strokeColor=none;shape=mxgraph.gcp2.network_load_balancer;part=1;labelPosition=right;verticalLabelPosition=middle;align=left;verticalAlign=middle;spacingLeft=5;fontSize=12;" vertex="1" parent="fN3U7Vte8udqsAbF8adY-123">
          <mxGeometry y="0.5" width="32" height="32" relative="1" as="geometry">
            <mxPoint x="5" y="-16" as="offset" />
          </mxGeometry>
        </mxCell>
        <mxCell id="fN3U7Vte8udqsAbF8adY-136" style="edgeStyle=orthogonalEdgeStyle;rounded=0;orthogonalLoop=1;jettySize=auto;html=1;exitX=0.5;exitY=1;exitDx=0;exitDy=0;entryX=0.5;entryY=0;entryDx=0;entryDy=0;strokeWidth=2;" edge="1" parent="fN3U7Vte8udqsAbF8adY-158" source="fN3U7Vte8udqsAbF8adY-99" target="fN3U7Vte8udqsAbF8adY-123">
          <mxGeometry relative="1" as="geometry" />
        </mxCell>
        <mxCell id="fN3U7Vte8udqsAbF8adY-139" value="" style="group" vertex="1" connectable="0" parent="fN3U7Vte8udqsAbF8adY-158">
          <mxGeometry x="729" y="331" width="160" height="60" as="geometry" />
        </mxCell>
        <mxCell id="fN3U7Vte8udqsAbF8adY-128" value="" style="rounded=0;whiteSpace=wrap;html=1;fillColor=#FFFFFF;strokeColor=#DDDDDD;fontColor=#333333;shadow=1;" vertex="1" parent="fN3U7Vte8udqsAbF8adY-139">
          <mxGeometry width="160" height="60" as="geometry" />
        </mxCell>
        <mxCell id="fN3U7Vte8udqsAbF8adY-126" value="" style="aspect=fixed;pointerEvents=1;shadow=0;dashed=0;html=1;strokeColor=none;labelPosition=center;verticalLabelPosition=bottom;verticalAlign=top;align=center;fillColor=#CC6600;shape=mxgraph.mscae.enterprise.server_farm" vertex="1" parent="fN3U7Vte8udqsAbF8adY-139">
          <mxGeometry x="17.537808177067404" y="8" width="50" height="32" as="geometry" />
        </mxCell>
        <mxCell id="fN3U7Vte8udqsAbF8adY-127" value="" style="aspect=fixed;pointerEvents=1;shadow=0;dashed=0;html=1;strokeColor=none;labelPosition=center;verticalLabelPosition=bottom;verticalAlign=top;align=center;fillColor=#CC6600;shape=mxgraph.mscae.enterprise.server_farm" vertex="1" parent="fN3U7Vte8udqsAbF8adY-139">
          <mxGeometry x="92.4686412542269" y="8" width="50" height="32" as="geometry" />
        </mxCell>
        <mxCell id="fN3U7Vte8udqsAbF8adY-132" value="&lt;font style=&quot;font-size: 14px&quot;&gt;&lt;b&gt;GridFTP Servers&lt;br&gt;&lt;/b&gt;&lt;/font&gt;" style="text;html=1;align=center;verticalAlign=middle;resizable=0;points=[];autosize=1;" vertex="1" parent="fN3U7Vte8udqsAbF8adY-139">
          <mxGeometry x="15.5" y="40" width="130" height="20" as="geometry" />
        </mxCell>
        <mxCell id="fN3U7Vte8udqsAbF8adY-137" style="edgeStyle=orthogonalEdgeStyle;rounded=0;orthogonalLoop=1;jettySize=auto;html=1;exitX=0.5;exitY=1;exitDx=0;exitDy=0;entryX=0.5;entryY=0;entryDx=0;entryDy=0;strokeWidth=2;" edge="1" parent="fN3U7Vte8udqsAbF8adY-158" source="fN3U7Vte8udqsAbF8adY-123" target="fN3U7Vte8udqsAbF8adY-128">
          <mxGeometry relative="1" as="geometry" />
        </mxCell>
        <mxCell id="fN3U7Vte8udqsAbF8adY-140" style="edgeStyle=orthogonalEdgeStyle;rounded=0;orthogonalLoop=1;jettySize=auto;html=1;entryX=0.5;entryY=0;entryDx=0;entryDy=0;" edge="1" parent="fN3U7Vte8udqsAbF8adY-158" source="fN3U7Vte8udqsAbF8adY-132" target="fN3U7Vte8udqsAbF8adY-114">
          <mxGeometry relative="1" as="geometry" />
        </mxCell>
        <mxCell id="fN3U7Vte8udqsAbF8adY-143" value="" style="group" vertex="1" connectable="0" parent="fN3U7Vte8udqsAbF8adY-158">
          <mxGeometry x="587" y="141" width="94.25" height="91" as="geometry" />
        </mxCell>
        <mxCell id="fN3U7Vte8udqsAbF8adY-89" value="&lt;div style=&quot;font-size: 14px&quot;&gt;&lt;font style=&quot;font-size: 14px&quot;&gt;&lt;b&gt;Model&lt;/b&gt;&lt;/font&gt;&lt;/div&gt;&lt;div style=&quot;font-size: 14px&quot;&gt;&lt;font style=&quot;font-size: 14px&quot;&gt;&lt;b&gt;Registry&lt;br&gt;&lt;/b&gt;&lt;/font&gt;&lt;/div&gt;" style="outlineConnect=0;fontColor=#232F3E;gradientColor=none;fillColor=#D05C17;strokeColor=none;dashed=0;verticalLabelPosition=bottom;verticalAlign=top;align=center;html=1;fontSize=12;fontStyle=0;aspect=fixed;pointerEvents=1;shape=mxgraph.aws4.registry;" vertex="1" parent="fN3U7Vte8udqsAbF8adY-143">
          <mxGeometry width="78" height="78" as="geometry" />
        </mxCell>
        <mxCell id="fN3U7Vte8udqsAbF8adY-91" value="" style="shape=mxgraph.gcp.storage_databases.persistent_disk;html=1;fillColor=#4387FD;gradientColor=#4683EA;strokeColor=none;verticalLabelPosition=bottom;verticalAlign=top;align=center;" vertex="1" parent="fN3U7Vte8udqsAbF8adY-143">
          <mxGeometry x="60" y="61" width="34.25" height="30" as="geometry" />
        </mxCell>
        <mxCell id="fN3U7Vte8udqsAbF8adY-98" style="edgeStyle=orthogonalEdgeStyle;rounded=0;orthogonalLoop=1;jettySize=auto;html=1;exitX=0.5;exitY=1;exitDx=0;exitDy=0;strokeWidth=2;" edge="1" parent="fN3U7Vte8udqsAbF8adY-158" source="fN3U7Vte8udqsAbF8adY-95" target="fN3U7Vte8udqsAbF8adY-89">
          <mxGeometry relative="1" as="geometry" />
        </mxCell>
        <mxCell id="fN3U7Vte8udqsAbF8adY-145" value="" style="strokeColor=#dddddd;shadow=1;strokeWidth=1;rounded=1;absoluteArcSize=1;arcSize=2;fillColor=#FFFFFF;" vertex="1" parent="fN3U7Vte8udqsAbF8adY-158">
          <mxGeometry x="550" y="331" width="140" height="60" as="geometry" />
        </mxCell>
        <mxCell id="fN3U7Vte8udqsAbF8adY-146" value="&lt;font size=&quot;1&quot;&gt;&lt;b&gt;&lt;font style=&quot;font-size: 14px&quot; color=&quot;#000000&quot;&gt;Monitoring&lt;/font&gt;&lt;/b&gt;&lt;/font&gt;" style="dashed=0;connectable=0;html=1;fillColor=#CC6600;strokeColor=none;shape=mxgraph.gcp2.hexIcon;prIcon=cloud_deployment_manager;part=1;labelPosition=right;verticalLabelPosition=middle;align=left;verticalAlign=middle;spacingLeft=5;fontColor=#999999;fontSize=12;" vertex="1" parent="fN3U7Vte8udqsAbF8adY-145">
          <mxGeometry y="0.5" width="44" height="39" relative="1" as="geometry">
            <mxPoint x="5" y="-19.5" as="offset" />
          </mxGeometry>
        </mxCell>
        <mxCell id="fN3U7Vte8udqsAbF8adY-147" style="edgeStyle=orthogonalEdgeStyle;rounded=0;orthogonalLoop=1;jettySize=auto;html=1;exitX=0;exitY=0.5;exitDx=0;exitDy=0;entryX=1;entryY=0.5;entryDx=0;entryDy=0;strokeColor=#000000;strokeWidth=2;" edge="1" parent="fN3U7Vte8udqsAbF8adY-158" source="fN3U7Vte8udqsAbF8adY-128" target="fN3U7Vte8udqsAbF8adY-145">
          <mxGeometry relative="1" as="geometry" />
        </mxCell>
        <mxCell id="fN3U7Vte8udqsAbF8adY-157" value="" style="group" vertex="1" connectable="0" parent="fN3U7Vte8udqsAbF8adY-158">
          <mxGeometry x="760" width="185.25" height="65" as="geometry" />
        </mxCell>
        <mxCell id="fN3U7Vte8udqsAbF8adY-152" value="" style="rounded=0;whiteSpace=wrap;html=1;shadow=0;strokeColor=#000000;fillColor=#FFFFFF;" vertex="1" parent="fN3U7Vte8udqsAbF8adY-157">
          <mxGeometry width="180" height="60" as="geometry" />
        </mxCell>
        <mxCell id="fN3U7Vte8udqsAbF8adY-149" value="" style="group" vertex="1" connectable="0" parent="fN3U7Vte8udqsAbF8adY-157">
          <mxGeometry y="35" width="151.0999999999999" height="30" as="geometry" />
        </mxCell>
        <mxCell id="fN3U7Vte8udqsAbF8adY-155" value="" style="group" vertex="1" connectable="0" parent="fN3U7Vte8udqsAbF8adY-149">
          <mxGeometry width="27.4" height="20" as="geometry" />
        </mxCell>
        <mxCell id="fN3U7Vte8udqsAbF8adY-102" value="" style="aspect=fixed;perimeter=ellipsePerimeter;html=1;align=center;shadow=0;dashed=0;fontColor=#4277BB;labelBackgroundColor=#ffffff;fontSize=12;spacingTop=3;image;image=img/lib/ibm/applications/microservice.svg;" vertex="1" parent="fN3U7Vte8udqsAbF8adY-155">
          <mxGeometry x="11" y="-2" width="27.4" height="20" as="geometry" />
        </mxCell>
        <mxCell id="fN3U7Vte8udqsAbF8adY-103" value="&lt;font style=&quot;font-size: 12px&quot;&gt;&lt;b&gt;Microservices&lt;/b&gt;&lt;/font&gt;" style="text;html=1;align=center;verticalAlign=middle;resizable=0;points=[];autosize=1;" vertex="1" parent="fN3U7Vte8udqsAbF8adY-157">
          <mxGeometry x="36.55000000000007" y="33" width="100" height="20" as="geometry" />
        </mxCell>
        <mxCell id="fN3U7Vte8udqsAbF8adY-156" value="" style="group" vertex="1" connectable="0" parent="fN3U7Vte8udqsAbF8adY-157">
          <mxGeometry x="11" y="8" width="174.25" height="30" as="geometry" />
        </mxCell>
        <mxCell id="fN3U7Vte8udqsAbF8adY-148" value="" style="group" vertex="1" connectable="0" parent="fN3U7Vte8udqsAbF8adY-156">
          <mxGeometry width="174.25" height="30" as="geometry" />
        </mxCell>
        <mxCell id="fN3U7Vte8udqsAbF8adY-154" value="" style="group" vertex="1" connectable="0" parent="fN3U7Vte8udqsAbF8adY-148">
          <mxGeometry width="22.83" height="20" as="geometry" />
        </mxCell>
        <mxCell id="fN3U7Vte8udqsAbF8adY-109" value="" style="shape=mxgraph.gcp.storage_databases.persistent_disk;html=1;fillColor=#4387FD;gradientColor=#4683EA;strokeColor=none;verticalLabelPosition=bottom;verticalAlign=top;align=center;" vertex="1" parent="fN3U7Vte8udqsAbF8adY-154">
          <mxGeometry width="22.83" height="20" as="geometry" />
        </mxCell>
        <mxCell id="fN3U7Vte8udqsAbF8adY-110" value="&lt;font style=&quot;font-size: 12px&quot;&gt;&lt;b&gt;Persistent Storage&lt;br&gt;&lt;/b&gt;&lt;/font&gt;" style="text;html=1;align=center;verticalAlign=middle;resizable=0;points=[];autosize=1;" vertex="1" parent="fN3U7Vte8udqsAbF8adY-156">
          <mxGeometry x="27.120000000000005" width="120" height="20" as="geometry" />
        </mxCell>
        <mxCell id="fN3U7Vte8udqsAbF8adY-125" style="edgeStyle=orthogonalEdgeStyle;rounded=0;orthogonalLoop=1;jettySize=auto;html=1;entryX=0;entryY=0.5;entryDx=0;entryDy=0;strokeWidth=2;" edge="1" parent="fN3U7Vte8udqsAbF8adY-158" source="fN3U7Vte8udqsAbF8adY-89" target="fN3U7Vte8udqsAbF8adY-99">
          <mxGeometry relative="1" as="geometry" />
        </mxCell>
      </root>
    </mxGraphModel>
  </diagram>
</mxfile>
